Coordinates
version=1
nRows=13
nColumns=30
inDegrees=yes

Units are S.I. units (second, meters, Newtons, ...)
Angles are in degrees.

endheader
time	floatyaw	floatroll	floatpitch	floatx	floaty	floatz	pro_sup_l	deviation_l	flexion_l	cmc_flexion_l	cmc_abduction_l	mp_flexion_l	ip_flexion_l	2mcp_flexion_l	2mcp_abduction_l	2pm_flexion_l	2md_flexion_l	3mcp_flexion_l	3mcp_abduction_l	3pm_flexion_l	3md_flexion_l	4mcp_flexion_l	4mcp_abduction_l	4pm_flexion_l	4md_flexion_l	5mcp_flexion_l	5mcp_abduction_l	5pm_flexion_l	5md_flexion_l
0.005000	-160.147433	-5.066637	-73.570646	-0.054531	-0.129712	-0.114360	21.601288	-14.722595	15.436584	11.600152	-17.384928	-24.650870	-45.870467	45.955204	14.980886	57.224736	48.573165	55.603720	5.989482	63.006870	39.193638	44.579800	-5.830150	68.454545	49.300900	17.157533	-14.410009	77.038056	61.464034
0.015000	-160.147433	-5.066637	-73.570646	-0.054226	-0.129697	-0.114807	21.530181	-14.697855	15.163431	11.569070	-17.907601	-24.700344	-46.286716	46.298593	15.444310	57.995907	51.151496	56.622506	6.104173	64.873636	40.609575	45.315607	-5.984525	70.945272	51.288771	17.115926	-14.628245	77.863039	62.967797
0.025000	-160.147433	-5.066637	-73.570646	-0.053916	-0.129602	-0.115230	21.596046	-14.646015	14.871865	11.470561	-18.376914	-24.861863	-46.831040	46.470348	15.793233	58.469005	53.598448	57.259494	6.195080	66.526200	41.992776	45.846891	-6.115273	73.154533	53.315445	16.959582	-14.780968	78.422162	64.309403
0.035000	-160.147433	-5.066637	-73.570646	-0.053649	-0.129446	-0.115655	21.736816	-14.620657	14.574345	11.312365	-18.827685	-25.090743	-47.456959	46.563975	16.014577	58.657974	55.720444	57.611084	6.265323	67.890647	43.283491	46.214357	-6.216831	74.947263	55.293136	16.775751	-14.874273	78.753994	65.399101
0.045000	-160.147433	-5.066637	-73.570646	-0.053449	-0.129243	-0.116095	21.902944	-14.650315	14.268862	11.088273	-19.258754	-25.355755	-48.105403	46.667429	16.129013	58.651412	57.415457	57.816688	6.320005	68.955664	44.454472	46.486621	-6.290707	76.281629	57.154131	16.653234	-14.923913	78.934871	66.206736
0.055000	-160.147433	-5.066637	-73.570646	-0.053318	-0.129009	-0.116546	22.063514	-14.736891	13.949393	10.792628	-19.647773	-25.637717	-48.718215	46.833182	16.176254	58.562053	58.680035	57.996833	6.363723	69.760343	45.507296	46.726017	-6.343312	77.204478	58.853875	16.644417	-14.948372	79.042243	66.760033
0.065000	-160.147433	-5.066637	-73.570646	-0.053238	-0.128763	-0.116998	22.203776	-14.863281	13.613406	10.433744	-19.970036	-25.922715	-49.249772	47.068012	16.196387	58.481365	59.581314	58.214522	6.399274	70.369063	46.457810	46.965754	-6.382327	77.819107	60.365738	16.749145	-14.963060	79.130222	67.121146
0.075000	-160.147433	-5.066637	-73.570646	-0.053183	-0.128522	-0.117437	22.318670	-15.004991	13.264719	10.035999	-20.211714	-26.197575	-49.674784	47.342956	16.216704	58.457479	60.215057	58.471953	6.427770	70.846315	47.320596	47.206529	-6.413675	78.242795	61.674936	16.924550	-14.977326	79.224381	67.357070
0.085000	-160.147433	-5.066637	-73.570646	-0.053131	-0.128305	-0.117851	22.407253	-15.140321	12.912915	9.630011	-20.374027	-26.449581	-49.989251	47.614196	16.247943	58.496985	60.670957	58.733544	6.449551	71.240413	48.100993	47.428457	-6.440330	78.571497	62.776553	17.110729	-14.994329	79.329244	67.518896
0.095000	-160.147433	-5.066637	-73.570646	-0.053069	-0.128125	-0.118232	22.470276	-15.255810	12.570956	9.240446	-20.470266	-26.668166	-50.204493	47.843250	16.288156	58.580060	61.015485	58.956546	6.465123	71.578209	48.796486	47.608005	-6.462861	78.861806	63.677050	17.256990	-15.012947	79.437979	67.635975
0.105000	-160.147433	-5.066637	-73.570646	-0.052994	-0.127987	-0.118573	22.510296	-15.346560	12.252299	8.881873	-20.520195	-26.846242	-50.338923	48.008748	16.329677	58.677475	61.290842	59.113469	6.475595	71.868263	49.403322	47.730825	-6.480817	79.131144	64.395709	17.337465	-15.030467	79.538648	67.721731
0.115000	-160.147433	-5.066637	-73.570646	-0.052910	-0.127887	-0.118872	22.532465	-15.413360	11.968504	8.563647	-20.545486	-26.980813	-50.413026	48.108252	16.365100	58.762932	61.522617	59.199840	6.482503	72.108442	49.922954	47.796596	-6.493953	79.370429	64.963400	17.353053	-15.044797	79.617651	67.783619
0.125000	-160.147433	-5.066637	-73.570646	-0.052823	-0.127818	-0.119122	22.544496	-15.459272	11.727707	8.295361	-20.566768	-27.073699	-50.448387	48.153312	16.390419	58.819455	61.728435	59.229628	6.487349	72.294333	50.364880	47.816934	-6.502779	79.561141	65.418026	17.323328	-15.055419	79.663101	67.830592
